<?xml version="1.0" standalone="no"?>
<!DOCTYPE svg PUBLIC "-//W3C//DTD SVG 20010904//EN"
 "http://www.w3.org/TR/2001/REC-SVG-20010904/DTD/svg10.dtd">
<svg version="1.0" xmlns="http://www.w3.org/2000/svg"
 width="770.000000pt" height="1280.000000pt" viewBox="0 0 770.000000 1280.000000"
 preserveAspectRatio="xMidYMid meet">
<metadata>
Created by potrace 1.15, written by Peter Selinger 2001-2017
</metadata>
<g transform="translate(0.000000,1280.000000) scale(0.100000,-0.100000)"
fill="#673ab7" stroke="none">
<path d="M6335 12782 c-48 -23 -67 -43 -138 -147 -97 -143 -134 -238 -158
-404 -31 -220 15 -452 181 -910 43 -121 115 -334 159 -473 44 -139 119 -374
166 -523 237 -740 359 -1219 415 -1630 26 -192 39 -339 30 -345 -9 -6 -16 -68
-35 -292 -14 -171 -37 -314 -56 -350 -5 -10 -27 -22 -49 -28 -36 -10 -45 -8
-83 14 -115 67 -272 117 -637 201 -311 71 -422 109 -542 187 -34 22 -56 33
-49 24 12 -14 10 -16 -22 -16 -20 0 -120 9 -224 20 -532 55 -736 53 -906 -12
-25 -10 -26 -12 -12 -28 14 -15 8 -18 -84 -39 -54 -12 -158 -40 -230 -61 -72
-22 -139 -40 -149 -40 -10 0 -22 -4 -28 -9 -5 -5 -85 -33 -179 -61 -352 -106
-433 -143 -605 -270 -69 -51 -151 -105 -183 -120 l-58 -28 51 -11 c28 -6 62
-11 76 -11 41 0 19 -16 -45 -34 -50 -14 -68 -15 -103 -5 -61 16 -87 38 -167
138 -68 85 -109 123 -160 151 -23 12 -24 11 -17 -11 4 -13 8 -28 10 -34 1 -5
10 -25 20 -44 10 -18 13 -30 7 -27 -6 4 -74 78 -150 165 -230 260 -310 331
-456 402 -75 36 -188 68 -244 69 l-24 0 24 -26 24 -26 -40 6 c-184 28 -524 36
-650 17 -176 -28 -310 -89 -415 -187 -39 -37 -69 -69 -67 -71 2 -2 20 4 40 12
56 23 56 18 2 -19 -77 -52 -163 -143 -211 -226 -24 -41 -44 -78 -44 -82 0 -3
-24 -30 -52 -58 l-53 -51 59 37 c60 37 175 88 182 81 8 -7 -20 -23 -66 -38
-107 -33 -263 -168 -313 -269 -28 -57 -29 -125 -2 -165 l19 -30 8 58 c18 139
111 188 353 186 71 -1 157 -4 190 -8 l60 -7 -118 -57 c-64 -31 -125 -57 -135
-58 -12 0 -9 -3 8 -10 14 -6 46 -9 72 -7 25 2 44 0 41 -4 -2 -5 -10 -8 -16 -8
-29 0 -138 -62 -200 -114 -38 -31 -73 -56 -78 -56 -18 0 -125 -75 -170 -120
-100 -100 -129 -212 -89 -341 l23 -74 8 38 c33 145 199 268 469 346 92 26 440
102 458 100 12 -1 -202 -69 -223 -70 -11 -1 -4 -4 15 -8 l35 -6 -50 -32 c-66
-43 -142 -109 -134 -118 4 -3 34 1 67 9 85 23 90 20 36 -17 -75 -50 -103 -71
-104 -78 0 -4 20 -5 45 -3 25 1 45 1 45 -1 0 -2 -19 -13 -42 -23 -65 -29 -116
-89 -218 -257 l-25 -40 45 37 c25 20 117 82 205 138 168 108 219 144 271 193
l32 29 7 -72 7 -73 -33 -26 c-19 -14 -54 -45 -79 -69 -43 -42 -44 -43 -12 -27
29 14 25 8 -26 -43 -62 -62 -105 -138 -117 -207 l-7 -40 53 52 c30 28 114 98
186 156 l133 105 -25 -48 -25 -49 63 47 c34 26 125 87 202 135 77 49 151 96
165 105 66 46 -101 -151 -180 -211 l-35 -27 53 0 53 0 -19 -27 c-65 -97 -82
-124 -82 -128 0 -3 23 -5 50 -5 47 0 50 -1 45 -22 -10 -44 -34 -192 -31 -195
1 -2 20 42 41 98 21 55 41 96 45 90 3 -6 14 15 24 46 10 32 29 80 43 106 28
56 101 139 117 134 6 -2 16 22 23 57 16 78 62 170 87 175 11 1 47 -3 80 -10
l61 -14 -40 -6 -40 -5 29 -12 c49 -21 113 -72 146 -118 35 -49 29 -53 -40 -29
-58 20 -61 19 -18 -10 48 -32 83 -107 104 -220 9 -49 25 -118 35 -152 25 -80
104 -198 177 -263 101 -90 303 -173 442 -181 39 -2 53 -10 103 -56 72 -66 217
-152 217 -129 0 3 -11 30 -24 61 -14 30 -23 55 -22 55 2 0 19 -15 39 -32 85
-78 211 -135 377 -170 75 -15 150 -21 358 -25 144 -3 262 -8 262 -10 0 -3 -26
-37 -59 -76 -89 -109 -207 -219 -296 -275 -44 -28 -90 -59 -101 -69 -12 -10
-146 -74 -298 -143 -151 -69 -276 -128 -276 -131 0 -11 113 -58 181 -75 81
-21 230 -21 328 0 41 9 76 14 78 13 1 -2 -47 -36 -107 -77 -61 -40 -110 -74
-110 -74 0 -1 122 0 272 2 l271 3 -26 -33 c-15 -18 -37 -50 -48 -72 l-21 -39
71 7 c39 4 71 3 71 -1 0 -5 -45 -62 -99 -127 -98 -116 -139 -184 -160 -262 -5
-22 -13 -120 -16 -219 -13 -400 -27 -580 -100 -1270 -83 -797 -96 -977 -96
-1380 1 -181 6 -348 16 -445 15 -157 42 -340 51 -349 2 -3 11 5 20 17 8 12 18
22 23 22 4 0 32 -24 63 -54 85 -83 124 -99 245 -104 216 -9 434 30 493 88 l29
29 -57 11 c-31 6 -70 18 -87 25 -58 27 -145 46 -197 44 -64 -3 -104 15 -146
68 -154 196 -189 602 -111 1308 11 99 31 333 44 520 49 666 84 934 161 1225
23 88 69 186 119 255 38 52 38 55 6 45 -29 -8 -30 -8 -20 18 6 15 34 71 62
126 60 114 137 203 253 291 44 33 110 84 148 114 58 45 79 56 123 62 44 6 96
27 195 77 4 2 5 -10 2 -27 -4 -17 -5 -31 -3 -31 2 0 26 7 53 15 27 8 53 15 58
15 14 0 -66 -150 -114 -215 -25 -33 -82 -103 -127 -155 -98 -114 -147 -206
-160 -305 -5 -38 -12 -428 -16 -865 -7 -1047 -18 -1424 -51 -1790 -41 -471
-36 -772 18 -953 11 -36 13 -38 44 -32 44 8 94 -11 202 -78 138 -86 181 -100
272 -93 41 3 96 11 121 19 39 12 49 12 64 1 27 -20 65 -17 104 7 31 19 32 21
15 33 -16 12 -12 15 41 26 80 16 87 19 82 27 -3 5 8 8 25 9 29 1 78 22 78 33
0 3 -34 17 -74 30 -53 17 -85 22 -114 18 -21 -4 -92 0 -156 8 -128 16 -182 38
-261 107 -67 59 -86 115 -96 293 -5 82 -16 229 -24 325 -8 96 -21 238 -27 315
-16 191 -16 946 0 1155 54 684 107 977 228 1263 85 199 167 307 456 604 124
128 256 270 293 316 154 190 270 397 318 567 l25 85 48 13 c27 7 64 11 83 10
l34 -3 -56 -45 c-31 -24 -55 -46 -53 -47 2 -2 23 5 48 16 25 10 107 38 183 61
147 44 230 81 309 137 36 26 47 30 41 17 -4 -11 -13 -40 -20 -66 -7 -25 -16
-51 -19 -57 -12 -18 2 -13 62 25 81 52 199 153 256 221 138 163 262 414 322
651 10 39 21 72 25 72 4 0 16 -21 27 -47 l21 -48 1 240 1 240 27 -50 26 -50 7
65 c10 92 34 182 96 360 91 260 105 325 105 475 0 116 -3 142 -32 243 -17 62
-29 119 -26 127 3 8 -6 39 -19 68 -14 30 -29 78 -35 108 -5 30 -17 97 -26 149
-22 130 -148 699 -185 840 -72 273 -178 578 -374 1070 -64 162 -134 342 -155
400 -21 58 -56 150 -78 205 -160 403 -307 985 -314 1251 -1 50 3 70 25 106 29
50 132 150 179 174 17 9 49 29 71 45 41 30 63 38 51 18 -3 -6 11 1 33 15 56
37 137 64 282 92 208 41 291 75 291 119 0 23 -1 23 -162 27 -181 5 -236 19
-310 78 l-38 31 -11 -25 -12 -25 -60 54 c-54 47 -155 110 -271 168 -58 28
-132 32 -181 9z m970 -362 c-38 -11 -232 -30 -301 -30 -68 0 -83 20 -17 21 26
1 98 5 158 9 61 3 128 7 150 7 38 1 39 1 10 -7z m-5915 -5556 c0 -3 -33 -21
-72 -40 -70 -33 -63 -37 12 -8 l35 14 -44 -38 c-47 -40 -314 -221 -319 -217
-2 2 4 18 14 37 48 95 166 193 282 234 68 24 92 29 92 18z m54 -3 c3 -5 -4
-11 -17 -14 -12 -2 -31 -8 -42 -12 -20 -8 -20 -8 -1 13 20 22 50 29 60 13z"/>
<path d="M4335 360 c-3 -5 -2 -10 4 -10 5 0 18 -3 28 -7 16 -6 16 -5 4 10 -15
19 -27 22 -36 7z"/>
</g>
</svg>
